<svg width="20" height="20" viewBox="0 0 20 20" fill="none" xmlns="http://www.w3.org/2000/svg">
<path d="M2.37312 13.8499C-0.790977 10.6858 -0.790913 5.53728 2.37312 2.37312C5.53728 -0.79104 10.6857 -0.79104 13.8498 2.37312C16.5342 5.05748 16.9407 9.0498 15.0705 12.1674C15.0705 12.1674 14.9362 12.3928 15.1176 12.5741C16.1527 13.609 19.258 16.7144 19.258 16.7144C20.0821 17.5385 20.2783 18.6908 19.5475 19.4217L19.4217 19.5474C18.6909 20.2784 17.5385 20.0823 16.7144 19.2581C16.7144 19.2581 13.6157 16.1593 12.5828 15.1265C12.3926 14.9363 12.1673 15.0707 12.1673 15.0707C9.0498 16.9408 5.05748 16.5343 2.37312 13.8499ZM12.3516 12.3516C14.6896 10.0137 14.6895 6.20953 12.3515 3.87154C10.0135 1.53361 6.2094 1.53355 3.87148 3.87154C1.53349 6.20946 1.53349 10.0137 3.87148 12.3516C6.20946 14.6895 10.0135 14.6895 12.3516 12.3516Z" fill="white"/>
<path d="M11.8336 7.62988C11.9425 7.62988 12.0531 7.60848 12.1597 7.56345C12.5856 7.38318 12.7849 6.89172 12.6047 6.46571C11.4716 3.78812 8.37149 2.53157 5.69396 3.66461C5.26803 3.84488 5.06875 4.33634 5.24902 4.76235C5.42936 5.18835 5.92069 5.3875 6.34682 5.20729C8.17363 4.43427 10.289 5.29163 11.0619 7.11844C11.1971 7.43794 11.5073 7.62988 11.8336 7.62988Z" fill="white"/>
</svg>
