<svg width="26" height="15" viewBox="0 0 26 15" fill="none" xmlns="http://www.w3.org/2000/svg">
<path d="M15.1196 5.22663C14.7192 4.69566 14.2163 4.2541 13.6421 3.92922C13.0678 3.60435 12.4343 3.40307 11.7807 3.33783C11.1272 3.27259 10.4674 3.34477 9.84231 3.54991C9.21718 3.75505 8.63994 4.08879 8.14625 4.53051L7.71975 4.19986C4.78967 2.09411 0.686711 3.88225 0.302858 7.489C0.186088 9.22661 0.156194 10.9692 0.213292 12.7099C0.203873 12.9333 0.239561 13.1562 0.318142 13.3649C0.396723 13.5737 0.51652 13.7637 0.670096 13.9232C0.823672 14.0827 1.00775 14.2083 1.21091 14.2922C1.41406 14.3762 1.63195 14.4166 1.85106 14.411C2.0655 14.4101 2.27754 14.3649 2.47444 14.2782C2.67133 14.1916 2.84902 14.0652 2.99682 13.9067C3.14462 13.7482 3.25949 13.5609 3.33451 13.356C3.40953 13.151 3.44317 12.9327 3.43339 12.7142C3.43339 11.4612 3.43339 10.2082 3.43339 8.95085C3.42994 8.5781 3.45561 8.20566 3.51016 7.83706C3.57896 7.45981 3.78523 7.12311 4.08749 6.89469C4.38974 6.66626 4.76558 6.56305 5.1394 6.60581C5.50483 6.63391 5.84766 6.79701 6.10362 7.06453C6.35959 7.33205 6.51112 7.68561 6.52981 8.05895C6.55113 8.52013 6.52981 8.9813 6.52981 9.44248C6.52981 10.565 6.52981 11.6875 6.52981 12.8099C6.52543 13.1355 6.62035 13.4544 6.80144 13.7226C6.98253 13.9907 7.24084 14.1948 7.54062 14.3066C8.6282 14.7678 9.73711 13.9585 9.75844 12.6838C9.75844 11.2002 9.75844 9.71658 9.80109 8.23298C9.81545 7.87434 9.92289 7.52602 10.1124 7.22361C10.2929 6.95695 10.5544 6.75834 10.8566 6.65847C11.1588 6.5586 11.4848 6.56303 11.7843 6.67107C12.1221 6.76765 12.4175 6.97902 12.6215 7.27018C12.8255 7.56134 12.9258 7.91483 12.906 8.27213C12.906 9.77314 12.906 11.2741 12.906 12.7751C12.906 12.9905 12.9476 13.2038 13.0284 13.4028C13.1092 13.6018 13.2277 13.7826 13.377 13.9349C13.5263 14.0873 13.7035 14.2081 13.8986 14.2905C14.0937 14.3729 14.3028 14.4154 14.5139 14.4154C14.7251 14.4154 14.9342 14.3729 15.1293 14.2905C15.3244 14.2081 15.5016 14.0873 15.6509 13.9349C15.8002 13.7826 15.9187 13.6018 15.9995 13.4028C16.0803 13.2038 16.1219 12.9905 16.1219 12.7751C16.1219 11.2393 16.1219 9.72963 16.1219 8.17207C16.1248 7.10274 15.7714 6.06414 15.1196 5.22663Z" fill="#4F235C"/>
<path d="M23.1763 6.0968L22.6688 5.88361C23.172 5.48334 23.6497 5.13964 24.0762 4.74807C24.4551 4.44374 24.7823 4.07771 25.0444 3.66474C25.8121 2.2029 24.7288 0.501764 23.01 0.462608C21.4234 0.440854 19.841 0.440854 18.2544 0.440854C18.0601 0.427154 17.8651 0.455525 17.6823 0.524104C17.4995 0.592683 17.3329 0.699921 17.1935 0.838784C17.0542 0.977646 16.9452 1.14499 16.8737 1.32985C16.8022 1.5147 16.7699 1.71289 16.7787 1.9114C16.7598 2.11359 16.7841 2.31758 16.8501 2.50923C16.916 2.70087 17.0221 2.87559 17.1608 3.02127C17.2996 3.16695 17.4677 3.28011 17.6536 3.35291C17.8395 3.42571 18.0387 3.4564 18.2374 3.44285C19.0136 3.44285 19.7899 3.44285 20.5661 3.44285C20.6983 3.48636 20.8348 3.48636 21.0907 3.48636C20.0372 4.35651 19.0648 5.18314 18.1052 6.00108C17.4867 6.52317 17.2991 7.09311 17.5166 7.74137C17.6321 8.06135 17.8474 8.33381 18.1294 8.51694C18.4114 8.70006 18.7445 8.78373 19.0776 8.75509C19.9007 8.75509 20.7282 8.75509 21.5513 8.75509C21.7359 8.72027 21.9258 8.72732 22.1074 8.77573C22.289 8.82415 22.458 8.91274 22.6023 9.03523C22.7466 9.15772 22.8628 9.3111 22.9425 9.48449C23.0221 9.65789 23.0635 9.84705 23.0635 10.0386C23.0635 10.2301 23.0221 10.4192 22.9425 10.5926C22.8628 10.766 22.7466 10.9194 22.6023 11.0419C22.458 11.1644 22.289 11.253 22.1074 11.3014C21.9258 11.3498 21.7359 11.3568 21.5513 11.322C20.4851 11.322 19.4188 11.322 18.3525 11.322C17.9788 11.3426 17.627 11.5086 17.3695 11.7858C17.1121 12.063 16.9686 12.4303 16.9686 12.8121C16.9686 13.194 17.1121 13.5613 17.3695 13.8385C17.627 14.1157 17.9788 14.2817 18.3525 14.3023C19.4657 14.3023 20.5832 14.3023 21.6963 14.3023C22.6742 14.277 23.6138 13.9096 24.3577 13.2616C25.1016 12.6137 25.6045 11.7246 25.7822 10.7434C25.9239 9.78271 25.7437 8.80138 25.2708 7.95815C24.7979 7.11492 24.0599 6.4591 23.1763 6.0968Z" fill="#4F235C"/>
</svg>
