<svg width="46" height="17" viewBox="0 0 46 17" fill="none" xmlns="http://www.w3.org/2000/svg">
<path d="M33.2361 6.42833H31.6289V11.8932C31.6289 11.9955 31.5405 12.0831 31.4372 12.0831H30.1987C30.0955 12.0831 30.007 11.9955 30.007 11.8932V6.42833H28.3851C28.3409 6.42833 28.2819 6.41372 28.2524 6.38449C28.2229 6.35527 28.1934 6.31144 28.1934 6.25299V5.2886C28.1934 5.24477 28.2082 5.18632 28.2524 5.1571C28.2819 5.12787 28.3409 5.09865 28.3851 5.11326H33.2361C33.3393 5.11326 33.4278 5.18632 33.4278 5.2886V6.25299C33.4278 6.35527 33.3393 6.42833 33.2361 6.42833Z" fill="#4F235C"/>
<path d="M38.4113 12.0394C37.7773 12.1271 37.1285 12.1709 36.4945 12.1563C35.2707 12.1563 34.1943 11.8495 34.1943 10.1399V7.02755C34.1943 5.31796 35.2854 5.02572 36.5092 5.02572C37.1433 5.01111 37.7773 5.05494 38.4113 5.14261C38.544 5.15723 38.603 5.21567 38.603 5.33257V6.20928C38.603 6.31156 38.5145 6.39924 38.4113 6.39924H36.4208C35.9784 6.39924 35.8162 6.54535 35.8162 7.04216V7.88965H38.3376C38.4408 7.88965 38.5292 7.97732 38.5292 8.0796V8.97093C38.5292 9.07321 38.4408 9.16088 38.3376 9.16088H35.8162V10.1545C35.8162 10.6367 35.9784 10.7974 36.4208 10.7974H38.4113C38.5145 10.7974 38.603 10.8851 38.603 10.9874V11.8641C38.603 11.9664 38.544 12.0248 38.4113 12.0394Z" fill="#4F235C"/>
<path d="M45.5478 12.083H44.0439C43.9407 12.0976 43.8375 12.0391 43.7932 11.9368L42.481 9.89117L41.3014 11.893C41.2424 12.0099 41.1687 12.083 41.0655 12.083H39.6647C39.6352 12.083 39.591 12.083 39.5615 12.0537C39.532 12.0245 39.5173 11.9953 39.5173 11.9514C39.5173 11.9222 39.532 11.9076 39.532 11.893L41.5815 8.50305L39.5025 5.28844C39.4878 5.27382 39.4878 5.2446 39.4878 5.22999C39.4878 5.15693 39.5615 5.09848 39.6352 5.11309H41.1834C41.2866 5.11309 41.3604 5.20077 41.4193 5.28844L42.6284 7.18798L43.808 5.28844C43.8522 5.18615 43.9407 5.12771 44.0439 5.11309H45.4446C45.5183 5.11309 45.5921 5.15693 45.5921 5.22999C45.5921 5.2446 45.5773 5.27382 45.5773 5.28844L43.5131 8.53227L45.6658 11.893C45.6805 11.9222 45.6953 11.9514 45.6953 11.9807C45.6805 12.0391 45.6216 12.083 45.5478 12.083Z" fill="#4F235C"/>
<path d="M25.9374 5.12793C25.8637 5.12793 25.8047 5.17177 25.79 5.24482L24.4187 10.2859C24.404 10.3882 24.3745 10.432 24.286 10.432C24.1976 10.432 24.1681 10.3882 24.1533 10.2859L22.7821 5.24482C22.7673 5.17177 22.7084 5.12793 22.6346 5.12793H21.2781C21.2339 5.12793 21.1897 5.14254 21.1602 5.18638C21.1307 5.2156 21.1159 5.25944 21.1307 5.30327C21.1307 5.30327 22.8116 11.0896 22.8263 11.148C23.0475 11.8348 23.593 12.1708 24.286 12.1708C24.9495 12.2001 25.5541 11.7763 25.7457 11.148C25.7752 11.075 27.4119 5.30327 27.4119 5.30327C27.4266 5.25944 27.4119 5.2156 27.3824 5.18638C27.3529 5.15715 27.3087 5.12793 27.2644 5.12793H25.9374Z" fill="#4F235C"/>
<path d="M18.2702 0.4375H4.15967C3.64361 0.4375 3.17178 0.715125 2.92112 1.13887C2.65572 1.57723 2.64098 2.11787 2.87689 2.55622L4.29237 5.21558H1.72681C1.40243 5.21558 1.09279 5.37631 0.91586 5.65394C0.738925 5.93156 0.738925 6.28225 0.886371 6.57449L5.42771 15.0786C5.5899 15.3854 5.91428 15.5754 6.2534 15.5754C6.59253 15.5754 6.91691 15.3854 7.0791 15.0786L8.31765 12.7699L9.86583 15.6777C10.1165 16.1453 10.6178 16.4375 11.1486 16.4375C11.6794 16.4375 12.1807 16.1453 12.4314 15.6777L19.5088 2.48316C19.7447 2.04481 19.73 1.51878 19.4646 1.10965C19.2286 0.685902 18.7568 0.4375 18.2702 0.4375ZM11.9596 6.00462L8.8632 11.7617C8.75998 11.9663 8.55356 12.0832 8.31765 12.0832C8.08173 12.0832 7.87531 11.9517 7.7721 11.7617L4.71997 6.06307C4.6315 5.88773 4.6315 5.68316 4.73471 5.50782C4.83792 5.33248 5.0296 5.23019 5.22128 5.23019H11.473C11.6647 5.23019 11.8416 5.31786 11.9301 5.4786C12.048 5.63933 12.048 5.84389 11.9596 6.00462Z" fill="#4F235C"/>
</svg>
